<?xml version="1.0" encoding="UTF-8" standalone="no"?>
<!-- Created with Inkscape (http://www.inkscape.org/) -->

<svg
   xmlns:dc="http://purl.org/dc/elements/1.1/"
   xmlns:cc="http://creativecommons.org/ns#"
   xmlns:rdf="http://www.w3.org/1999/02/22-rdf-syntax-ns#"
   xmlns:svg="http://www.w3.org/2000/svg"
   xmlns="http://www.w3.org/2000/svg"
   xmlns:sodipodi="http://sodipodi.sourceforge.net/DTD/sodipodi-0.dtd"
   xmlns:inkscape="http://www.inkscape.org/namespaces/inkscape"
   id="svg3494"
   version="1.1"
   inkscape:version="0.91 r13725"
   width="2157.8765"
   height="273.77005"
   viewBox="0 0 2157.8765 273.77005"
   sodipodi:docname="20150709_133909.svg">
  <metadata
     id="metadata3500">
    <rdf:RDF>
      <cc:Work
         rdf:about="">
        <dc:format>image/svg+xml</dc:format>
        <dc:type
           rdf:resource="http://purl.org/dc/dcmitype/StillImage" />
        <dc:title></dc:title>
      </cc:Work>
    </rdf:RDF>
  </metadata>
  <defs
     id="defs3498" />
  <sodipodi:namedview
     pagecolor="#ffffff"
     bordercolor="#666666"
     borderopacity="1"
     objecttolerance="10"
     gridtolerance="10"
     guidetolerance="10"
     inkscape:pageopacity="0"
     inkscape:pageshadow="2"
     inkscape:window-width="1362"
     inkscape:window-height="724"
     id="namedview3496"
     showgrid="false"
     fit-margin-top="0"
     fit-margin-left="0"
     fit-margin-right="0"
     fit-margin-bottom="0"
     inkscape:zoom="0.35482517"
     inkscape:cx="1104.5"
     inkscape:cy="191.83126"
     inkscape:window-x="4"
     inkscape:window-y="0"
     inkscape:window-maximized="1"
     inkscape:current-layer="svg3494" />
  <path
     style="fill:none;fill-rule:evenodd;stroke:#000000;stroke-width:31.70000076;stroke-linecap:round;stroke-linejoin:round;stroke-miterlimit:4;stroke-dasharray:none;stroke-opacity:1"
     d="m 15.860617,257.69448 9.75202,-241.850129 c 0,0 44.2321,106.389999 79.224643,151.291609 15.34466,19.68991 34.95904,36.22508 55.84594,49.89579 21.99067,14.39314 71.67227,32.86112 71.67227,32.86112 0,0 -22.77012,-92.69199 -33.15687,-193.090029 -3.40374,-32.90045 -27.30566,-37.05768 -27.30566,-37.05768"
     id="path3504"
     inkscape:connector-curvature="0"
     sodipodi:nodetypes="ccsscsc" />
  <path
     style="fill:none;fill-rule:evenodd;stroke:#000000;stroke-width:31.70000076;stroke-linecap:round;stroke-linejoin:round;stroke-miterlimit:4;stroke-dasharray:none;stroke-opacity:1"
     d="m 400.09026,43.150011 c -15.26827,-5.57243 -33.28209,-4.96016 -48.7601,0 -15.97763,5.12027 -31.10734,15.67459 -40.95849,29.25607 -14.00465,19.30779 -21.29877,44.412599 -21.45445,68.264149 -0.13291,20.36239 5.9521,41.77748 17.55364,58.51213 11.63107,16.77724 29.41373,30.54036 48.7601,37.05768 19.71565,6.64172 42.45175,5.86264 62.41294,0 20.76377,-6.09836 43.46089,-16.56026 54.61132,-35.10728 12.10116,-20.12841 12.15641,-47.59077 5.85121,-70.21455 -6.24939,-22.42353 -25.11129,-39.510749 -40.95849,-56.561729 -10.99388,-11.829 -21.88744,-25.66982 -37.05768,-31.20647 z"
     id="path3506"
     inkscape:connector-curvature="0"
     sodipodi:nodetypes="sssssssssss" />
  <path
     style="fill:none;fill-rule:evenodd;stroke:#000000;stroke-width:31.70000076;stroke-linecap:round;stroke-linejoin:round;stroke-miterlimit:4;stroke-dasharray:none;stroke-opacity:1"
     d="m 513.21371,29.497181 c 0,0 141.61158,-10.89786 210.64366,1.95041 5.46097,1.0164 15.60324,5.85121 15.60324,5.85121"
     id="path3508"
     inkscape:connector-curvature="0"
     sodipodi:nodetypes="csc" />
  <path
     style="fill:none;fill-rule:evenodd;stroke:#000000;stroke-width:31.70000076;stroke-linecap:round;stroke-linejoin:round;stroke-miterlimit:4;stroke-dasharray:none;stroke-opacity:1"
     d="m 643.8908,251.84327 c 0,0 -11.8974,-21.81986 -13.65284,-35.10728 -8.431,-63.8167 -21.45444,-183.337999 -21.45444,-183.337999"
     id="path3510"
     inkscape:connector-curvature="0"
     sodipodi:nodetypes="csc" />
  <path
     style="fill:none;fill-rule:evenodd;stroke:#000000;stroke-width:31.70000076;stroke-linecap:round;stroke-linejoin:round;stroke-miterlimit:4;stroke-dasharray:none;stroke-opacity:1"
     d="m 967.65789,45.100421 -146.2803,29.25606 -27.30566,74.115359 c 0,0 -16.34953,38.66656 -13.65283,58.51213 1.09686,8.07198 5.11242,16.66572 11.70242,21.45445 8.56167,6.22147 20.62395,5.71251 31.20647,5.85121 53.3303,0.69897 157.9828,-25.35525 157.9828,-25.35525"
     id="path3512"
     inkscape:connector-curvature="0"
     sodipodi:nodetypes="cccsssc" />
  <path
     style="fill:none;fill-rule:evenodd;stroke:#000000;stroke-width:31.70000076;stroke-linecap:round;stroke-linejoin:round;stroke-miterlimit:4;stroke-dasharray:none;stroke-opacity:1"
     d="M 797.97274,140.67023 944.25309,109.46376"
     id="path3514"
     inkscape:connector-curvature="0" />
  <path
     style="fill:none;fill-rule:evenodd;stroke:#000000;stroke-width:31.70000076;stroke-linecap:round;stroke-linejoin:round;stroke-miterlimit:4;stroke-dasharray:none;stroke-opacity:1"
     d="m 1082.7318,47.050821 -5.8512,183.337999 1.9504,13.65283"
     id="path3516"
     inkscape:connector-curvature="0" />
  <path
     style="fill:none;fill-rule:evenodd;stroke:#000000;stroke-width:31.70000076;stroke-linecap:round;stroke-linejoin:round;stroke-miterlimit:4;stroke-dasharray:none;stroke-opacity:1"
     d="m 1028.1205,54.852441 c 0,0 30.607,-14.68744 46.8097,-19.50404 17.112,-5.0869 34.9842,-12.2479 52.6609,-9.75202 17.2736,2.43896 37.0296,8.95926 46.8097,23.40485 4.389,6.48266 4.359,15.95593 1.9504,23.40485 -3.6883,11.40641 -14.0781,19.77432 -23.4049,27.30566 -13.8061,11.148349 -46.8097,25.355249 -46.8097,25.355249 0,0 51.1368,11.52274 76.0658,19.50405 29.2064,9.35077 64.648,10.96919 85.8178,33.15687 5.6769,5.94986 10.6234,15.6805 7.8016,23.40485 -4.7059,12.88197 -22.4265,16.23062 -35.1073,21.45445 -36.4513,15.01604 -75.8371,23.47709 -115.0738,27.30566 -16.836,1.6428 -50.7105,-1.95041 -50.7105,-1.95041"
     id="path3518"
     inkscape:connector-curvature="0"
     sodipodi:nodetypes="caaaaacsssssc" />
  <path
     style="fill:none;fill-rule:evenodd;stroke:#000000;stroke-width:31.70000076;stroke-linecap:round;stroke-linejoin:round;stroke-miterlimit:4;stroke-dasharray:none;stroke-opacity:1"
     d="m 1418.2013,64.604461 c -16.4473,0 -34.2439,4.99134 -46.8097,15.60323 -16.8881,14.26204 -24.7091,37.384039 -31.2065,58.512129 -5.3814,17.49918 -11.9451,37.34733 -5.8512,54.61132 6.1208,17.34003 21.8672,32.35007 39.0081,39.00809 27.2979,10.6033 59.4708,3.64027 87.7682,-3.90081 21.9154,-5.84034 44.8989,-14.70893 60.4625,-31.20647 8.7878,-9.31516 15.3618,-22.30338 15.6033,-35.10728 0.2641,-14.00185 -6.9722,-27.97965 -15.6033,-39.00808 -15.7903,-20.17624 -39.5992,-33.199589 -62.4129,-44.859299 -12.8147,-6.54938 -26.5672,-13.65283 -40.9585,-13.65283 z"
     id="path3520"
     inkscape:connector-curvature="0"
     sodipodi:nodetypes="sssssssssss" />
  <path
     style="fill:none;fill-rule:evenodd;stroke:#000000;stroke-width:31.70000076;stroke-linecap:round;stroke-linejoin:round;stroke-miterlimit:4;stroke-dasharray:none;stroke-opacity:1"
     d="m 1699.0595,70.455671 c -15.1515,1.43501 -30.6047,6.64596 -42.9089,15.60324 -11.9857,8.72544 -22.7453,21.000729 -27.3056,35.107269 -5.6031,17.33221 -5.3196,37.9096 1.9504,54.61132 6.6052,15.17448 20.2404,27.83613 35.1073,35.10728 23.5428,11.51441 52.1846,14.17677 78.0161,9.75202 22.926,-3.92706 50.1845,-11.42038 62.413,-31.20647 11.2793,-18.25024 8.4206,-44.63047 0,-64.36334 -8.4823,-19.87731 -27.4641,-35.225849 -46.8097,-44.859299 -18.2743,-9.09997 -40.1389,-11.67689 -60.4626,-9.75202 z"
     id="path3522"
     inkscape:connector-curvature="0"
     sodipodi:nodetypes="ssssssssss" />
  <path
     style="fill:none;fill-rule:evenodd;stroke:#000000;stroke-width:31.70000076;stroke-linecap:round;stroke-linejoin:round;stroke-miterlimit:4;stroke-dasharray:none;stroke-opacity:1"
     d="m 1896.0504,45.100421 11.7024,169.685169"
     id="path3524"
     inkscape:connector-curvature="0" />
  <path
     style="fill:none;fill-rule:evenodd;stroke:#000000;stroke-width:31.70000076;stroke-linecap:round;stroke-linejoin:round;stroke-miterlimit:4;stroke-dasharray:none;stroke-opacity:1"
     d="m 2003.3226,64.604461 c 0,0 2.746,13.61109 0,19.50404 -8.9657,19.240269 -28.6314,34.220099 -48.7601,40.958489 -11.7298,3.92674 -37.0577,-1.9504 -37.0577,-1.9504 0,0 13.6469,27.4013 23.4049,39.00808 20.4659,24.34352 45.2359,45.49285 72.1649,62.41294 17.9986,11.3089 37.7602,20.75091 58.5121,25.35526 22.858,5.07165 70.2146,1.9504 70.2146,1.9504"
     id="path3526"
     inkscape:connector-curvature="0"
     sodipodi:nodetypes="csscsssc" />
</svg>
